<svg id="Layer_1" data-name="Layer 1" xmlns="http://www.w3.org/2000/svg" viewBox="0 0 448 512"><defs><style>.cls-1{fill:#e2e5e7;}.cls-2{fill:#b0b7bd;}.cls-3{fill:#cad1d8;}.cls-4{fill:#84bd5a;}.cls-5{fill:#fff;}</style></defs><path class="cls-1" d="M128,0A32.09,32.09,0,0,0,96,32V480a32.09,32.09,0,0,0,32,32H448a32.09,32.09,0,0,0,32-32V128L352,0Z" transform="translate(-32)"/><path class="cls-2" d="M384,128h96L352,0V96A32.09,32.09,0,0,0,384,128Z" transform="translate(-32)"/><polygon class="cls-3" points="448 224 352 128 448 128 448 224"/><path class="cls-4" d="M416,416a16,16,0,0,1-16,16H48a16,16,0,0,1-16-16V256a16,16,0,0,1,16-16H400a16,16,0,0,1,16,16Z" transform="translate(-32)"/><path class="cls-3" d="M400,432H96v16H400a16,16,0,0,0,16-16V416A16,16,0,0,1,400,432Z" transform="translate(-32)"/><path class="cls-5" d="M181.82,355.29a24.22,24.22,0,0,1-2.14,9.41,34.16,34.16,0,0,1-6.74,9.95,34.53,34.53,0,0,1-11.75,7.92,42.21,42.21,0,0,1-16.65,3,58.37,58.37,0,0,1-13.12-1.36A36.87,36.87,0,0,1,120.7,380a36.14,36.14,0,0,1-8.85-7.61,45.48,45.48,0,0,1-6.15-9.6,49.47,49.47,0,0,1-3.82-11.34,61.8,61.8,0,0,1-1.28-12.8,56.85,56.85,0,0,1,3.2-19.7A42.18,42.18,0,0,1,113,304.05a40,40,0,0,1,14-9.41A45.15,45.15,0,0,1,144,291.41a42.73,42.73,0,0,1,19.7,4.41A35.56,35.56,0,0,1,177,306.73c3.07,4.32,4.6,8.42,4.6,12.27a8,8,0,0,1-2.23,5.59,7.1,7.1,0,0,1-5.41,2.42,7.45,7.45,0,0,1-5.31-1.67,23.37,23.37,0,0,1-4-5.78,27.77,27.77,0,0,0-8.48-10.13,20.69,20.69,0,0,0-12-3.36q-11.37,0-18.11,8.64t-6.74,24.55q0,10.62,3,17.68a22.3,22.3,0,0,0,8.45,10.53,23.33,23.33,0,0,0,12.8,3.48A22.51,22.51,0,0,0,157,367a23.82,23.82,0,0,0,8.29-11.59,19.72,19.72,0,0,1,2.92-5.87q1.74-2.27,5.6-2.27a7.82,7.82,0,0,1,5.65,2.3A7.69,7.69,0,0,1,181.82,355.29Z" transform="translate(-32)"/><path class="cls-5" d="M267.64,356.72a26.75,26.75,0,0,1-4.26,14.85,28.27,28.27,0,0,1-12.46,10.32q-8.21,3.72-19.45,3.72-13.49,0-22.24-5.09a29.65,29.65,0,0,1-10.1-9.79,22.23,22.23,0,0,1-3.89-11.9,8.06,8.06,0,0,1,8.27-8.14,7,7,0,0,1,4.94,1.87,14.51,14.51,0,0,1,3.45,5.53,36.84,36.84,0,0,0,3.76,7.27,15.22,15.22,0,0,0,5.68,4.81,21,21,0,0,0,9.64,1.9q8.19,0,13.33-3.82t5.12-9.54a10.11,10.11,0,0,0-2.76-7.37,18,18,0,0,0-7.15-4.32q-4.38-1.49-11.71-3.16a86.35,86.35,0,0,1-16.44-5.38,26.59,26.59,0,0,1-10.5-8.39,21.76,21.76,0,0,1-3.89-13.2,22.67,22.67,0,0,1,4.11-13.37,25.85,25.85,0,0,1,11.86-9,48.46,48.46,0,0,1,18.27-3.14,45.1,45.1,0,0,1,14.51,2.08A30.57,30.57,0,0,1,255.89,299a23,23,0,0,1,5.91,7.24,16.72,16.72,0,0,1,1.86,7.39,8.71,8.71,0,0,1-2.33,5.94,7.43,7.43,0,0,1-5.81,2.64,6.69,6.69,0,0,1-4.81-1.58,21.59,21.59,0,0,1-3.58-5.19,23.46,23.46,0,0,0-6-8q-3.48-2.9-11.19-2.89-7.14,0-11.53,3.14t-4.38,7.55a7.68,7.68,0,0,0,1.49,4.72,12.57,12.57,0,0,0,4.11,3.42,28,28,0,0,0,5.28,2.24q2.67.8,8.82,2.36a137.66,137.66,0,0,1,13.95,4,42,42,0,0,1,10.63,5.29,21.76,21.76,0,0,1,6.84,7.86A25.25,25.25,0,0,1,267.64,356.72Z" transform="translate(-32)"/><path class="cls-5" d="M296.78,303.52l20.64,61.09,20.69-61.52c1.08-3.23,1.88-5.48,2.42-6.74a8.94,8.94,0,0,1,2.67-3.42,7.83,7.83,0,0,1,5.1-1.52,8.52,8.52,0,0,1,4.38,1.18,8.68,8.68,0,0,1,3.17,3.14,7.67,7.67,0,0,1,1.15,3.94,12.8,12.8,0,0,1-.37,2.95,27.19,27.19,0,0,1-.93,3.11c-.38,1-.75,2.06-1.12,3.14L332.52,368.4c-.79,2.28-1.58,4.44-2.37,6.5a26.71,26.71,0,0,1-2.73,5.4,12.15,12.15,0,0,1-4.13,3.82,12.36,12.36,0,0,1-6.31,1.49,12.56,12.56,0,0,1-6.31-1.46,11.93,11.93,0,0,1-4.16-3.85,28.27,28.27,0,0,1-2.77-5.44q-1.17-3-2.36-6.46l-21.68-59c-.38-1.08-.76-2.14-1.15-3.17a24.08,24.08,0,0,1-1-3.36,14.26,14.26,0,0,1-.4-3A8.09,8.09,0,0,1,279.7,294a8.56,8.56,0,0,1,6.4-2.61q4.71,0,6.68,2.89A38.31,38.31,0,0,1,296.78,303.52Z" transform="translate(-32)"/></svg>