<svg id="Layer_1" data-name="Layer 1" xmlns="http://www.w3.org/2000/svg" viewBox="0 0 448 512"><defs><style>.cls-1{fill:#e2e5e7;}.cls-2{fill:#b0b7bd;}.cls-3{fill:#cad1d8;}.cls-4{fill:#50bee8;}.cls-5{fill:#fff;}</style></defs><path class="cls-1" d="M128,0A32.09,32.09,0,0,0,96,32V480a32.08,32.08,0,0,0,32,32H448a32.08,32.08,0,0,0,32-32V128L352,0Z" transform="translate(-32)"/><path class="cls-2" d="M384,128h96L352,0V96A32.09,32.09,0,0,0,384,128Z" transform="translate(-32)"/><polygon class="cls-3" points="448 224 352 128 448 128 448 224"/><path class="cls-4" d="M416,416a16,16,0,0,1-16,16H48a16,16,0,0,1-16-16V256a16,16,0,0,1,16-16H400a16,16,0,0,1,16,16Z" transform="translate(-32)"/><path class="cls-3" d="M400,432H96v16H400a16,16,0,0,0,16-16V416A16,16,0,0,1,400,432Z" transform="translate(-32)"/><path class="cls-5" d="M131.65,371l-14-55.8v60.46c0,3.35-.74,5.86-2.24,7.53a8.22,8.22,0,0,1-11.8,0q-2.26-2.48-2.27-7.56v-69.3q0-5.73,3-7.74a14.34,14.34,0,0,1,8.07-2h5.49a20.85,20.85,0,0,1,7.2.9,6,6,0,0,1,3.32,3.23,51.25,51.25,0,0,1,2.45,7.58l12.72,48,12.73-48a48.94,48.94,0,0,1,2.45-7.58,6,6,0,0,1,3.31-3.23,20.93,20.93,0,0,1,7.2-.9h5.5a14.33,14.33,0,0,1,8.06,2q3,2,3,7.74v69.3q0,5-2.24,7.53a7.64,7.64,0,0,1-6,2.51,7.48,7.48,0,0,1-5.8-2.51q-2.27-2.51-2.27-7.53V315.2l-14,55.8c-.92,3.63-1.66,6.29-2.24,8a11,11,0,0,1-3.2,4.63,9.32,9.32,0,0,1-6.45,2.09,9.4,9.4,0,0,1-8.6-4.78,19.52,19.52,0,0,1-1.88-4.63C132.6,374.6,132.13,372.83,131.65,371Z" transform="translate(-32)"/><path class="cls-5" d="M238,350.09H221.75v24.8q0,5.31-2.51,8.06a8.84,8.84,0,0,1-12.79,0q-2.44-2.72-2.45-8V307.5c0-3.91.9-6.69,2.69-8.37s4.64-2.51,8.54-2.51H238q10.09,0,15.53,1.56a23,23,0,0,1,9.29,5,22.24,22.24,0,0,1,5.94,8.48,29.73,29.73,0,0,1,2,11.29q0,13.38-8.24,20.28T238,350.09ZM233.69,310H221.75v26.76h11.94a35.93,35.93,0,0,0,10.49-1.31,12.18,12.18,0,0,0,6.42-4.31,12.85,12.85,0,0,0,2.21-7.82,13.28,13.28,0,0,0-3.4-9.44Q245.59,309.95,233.69,310Z" transform="translate(-32)"/><path class="cls-5" d="M318.89,376.62V365.51h-30q-5.68,0-8.52-2.57a9,9,0,0,1-2.83-7,6.69,6.69,0,0,1,.41-2.3,11.67,11.67,0,0,1,1.26-2.45c.56-.86,1.13-1.68,1.73-2.48l2.21-2.93,31.66-42.36a49.56,49.56,0,0,1,5.11-6.06,6.8,6.8,0,0,1,4.81-1.88q9.09,0,9.08,10.39v46.24h2.57a18.07,18.07,0,0,1,7.38,1.26q2.78,1.26,2.78,5.5a5.71,5.71,0,0,1-2.27,5q-2.28,1.59-6.81,1.59h-3.65v11.11c0,3.07-.67,5.35-2,6.84A7.61,7.61,0,0,1,321,383.4C319.57,381.87,318.89,379.61,318.89,376.62Zm-25.69-24.5h25.69V317.41Z" transform="translate(-32)"/></svg>